<svg width="159" height="50" viewBox="0 0 159 50" fill="none" xmlns="http://www.w3.org/2000/svg">
<path d="M14.64 10.87L11.25 5.01999C6.07999 7.99999 2.30999 12.92 0.759995 18.68L7.29 20.43C8.38 16.4 11.02 12.96 14.64 10.87Z" fill="black"/>
<path d="M18.45 9.29C19.78 8.94 21.15 8.75 22.52 8.76V2C20.56 2 18.6 2.25 16.7 2.76L18.45 9.29Z" fill="black"/>
<path d="M36.18 16.65L42.03 13.27C39.04 8.09999 34.13 4.32999 28.37 2.76999L26.62 9.29999C30.66 10.39 34.1 13.04 36.18 16.65Z" fill="black"/>
<path d="M6.75 24.52H0C0 26.48 0.25 28.44 0.76 30.34L7.29 28.59C6.93 27.26 6.75 25.89 6.75 24.52Z" fill="black"/>
<path d="M8.88 32.4L3.02 35.78C4.01 37.48 5.21 39.04 6.59 40.43L11.39 35.66C10.41 34.68 9.57 33.59 8.88 32.4Z" fill="black"/>
<path d="M11.26 44.02C14.68 46 18.56 47.04 22.5 47.03V40.27C19.74 40.27 17.03 39.54 14.64 38.16L11.26 44.02Z" fill="black"/>
<path d="M26.61 39.74L28.36 46.27C34.12 44.72 39.04 40.95 42.03 35.79L36.18 32.42C34.08 36.03 30.64 38.66 26.61 39.74Z" fill="black"/>
<path d="M38.06 20.4C38.76 23.08 38.75 25.9 38.01 28.58L44.55 30.33C45.59 26.51 45.61 22.48 44.6 18.65L38.06 20.4Z" fill="black"/>
<path d="M66.84 18.88C68.76 18.88 70.5 20.07 71.3 22.09H76.23C75.91 20.2 74.86 18.51 73.12 17.02C71.28 15.45 69.24 14.76 66.7 14.76C61.43 14.76 57.22 19.16 57.22 24.04C57.22 26.82 58.07 29.16 60.06 31.1C61.95 32.96 64.36 33.86 66.92 33.86C71.28 33.86 75.07 31.05 76.22 26.62H71.3C70.33 28.68 68.74 29.73 66.87 29.73C63.96 29.73 61.92 27.24 61.92 24.26C61.92 21.39 63.9 18.88 66.84 18.88Z" fill="black"/>
<path d="M85.27 19.25C81.14 19.25 77.83 22.31 77.83 26.59C77.83 30.82 81.06 33.93 85.27 33.93C89.43 33.93 92.71 30.87 92.71 26.55C92.71 22.36 89.42 19.25 85.27 19.25ZM85.28 30.07C83.42 30.07 81.97 28.47 81.97 26.59C81.97 24.69 83.43 23.1 85.25 23.1C87.19 23.1 88.58 24.74 88.58 26.59C88.58 28.42 87.21 30.07 85.28 30.07Z" fill="black"/>
<path d="M105.3 20.86C104.13 19.69 102.84 19.22 101.25 19.22C97.22 19.22 94.41 22.43 94.41 26.56C94.41 30.74 97.15 33.95 101.33 33.95C103.29 33.95 104.69 33.28 105.46 32.01H105.51V33.5H109.44V15.1H105.31V20.86H105.3ZM101.98 30.09C99.99 30.09 98.53 28.62 98.53 26.54C98.53 24.53 100.07 23.09 102.01 23.09C104.05 23.09 105.52 24.63 105.52 26.54C105.52 28.57 104 30.09 101.98 30.09Z" fill="black"/>
<path d="M122.78 21.16H122.73C121.94 19.89 120.37 19.22 118.68 19.22C114.72 19.22 111.76 22.5 111.76 26.58C111.76 30.76 114.6 33.97 118.68 33.97C120.49 33.97 122.13 33.23 122.73 32.01H122.78V33.5H126.91V19.7H122.78V21.16ZM119.32 30.12C117.4 30.12 115.89 28.55 115.89 26.63C115.89 24.64 117.39 23.08 119.28 23.08C121.22 23.08 122.79 24.65 122.79 26.59C122.78 28.57 121.27 30.12 119.32 30.12Z" fill="black"/>
<path d="M136.68 30.1C134.76 30.1 133.39 28.61 133.39 26.59C133.39 24.65 134.69 23.08 136.58 23.08C138 23.08 139.07 23.73 139.67 25.02V25.01H143.84C143.07 21.5 140.11 19.22 136.48 19.22C132.51 19.22 129.24 22.43 129.24 26.56C129.24 30.64 132.47 33.95 136.55 33.95C140.08 33.95 143.05 31.71 143.86 28.26H139.66C139.05 29.45 138.07 30.1 136.68 30.1Z" fill="black"/>
<path d="M154.02 19.69L151.39 27.7H151.34L148.58 19.69H144.18L149.3 32.8L147.12 38.1H151.49L158.4 19.69H154.02Z" fill="black"/>
</svg>
