<svg width="80" height="50" viewBox="0 0 80 50" fill="none" xmlns="http://www.w3.org/2000/svg">
<path d="M11.2062 15.5715C12.6875 15.5715 14.0078 15.9426 15.167 16.6849C16.3478 17.4059 17.2709 18.4556 17.9364 19.834C18.6234 21.1912 18.9668 22.8028 18.9668 24.669C18.9668 26.5139 18.6234 28.1256 17.9364 29.5039C17.2709 30.8823 16.3478 31.9427 15.167 32.6849C14.0078 33.4059 12.6875 33.7664 11.2062 33.7664C9.83227 33.7664 8.65154 33.4589 7.66402 32.8439C6.6765 32.2289 5.95733 31.3913 5.5065 30.331V42.0049H0V15.7942H5.5065V19.0069C5.95733 17.9466 6.6765 17.109 7.66402 16.494C8.65154 15.879 9.83227 15.5715 11.2062 15.5715ZM9.43512 20.3429C8.27585 20.3429 7.32053 20.7352 6.56916 21.5198C5.83925 22.2833 5.4743 23.333 5.4743 24.669C5.4743 25.9837 5.83925 27.0334 6.56916 27.8181C7.32053 28.6027 8.27585 28.995 9.43512 28.995C10.6158 28.995 11.5604 28.6133 12.2689 27.8499C12.9988 27.0864 13.3637 26.0261 13.3637 24.669C13.3637 23.3118 12.9988 22.2515 12.2689 21.488C11.5604 20.7246 10.6158 20.3429 9.43512 20.3429Z" fill="#176267"/>
<path d="M37.7641 15.7942V33.5437H32.2254V30.331C31.7102 31.3701 30.9373 32.1971 29.9069 32.8121C28.8979 33.4271 27.7172 33.7346 26.3647 33.7346C24.3038 33.7346 22.6615 33.056 21.4378 31.6988C20.2356 30.3416 19.6345 28.4755 19.6345 26.1004V15.7942H25.1088V25.4324C25.1088 26.6411 25.4201 27.5848 26.0427 28.2634C26.6867 28.9208 27.5454 29.2495 28.6188 29.2495C29.7351 29.2495 30.6153 28.8996 31.2594 28.1998C31.9034 27.5 32.2254 26.5033 32.2254 25.2097V15.7942H37.7641Z" fill="#176267"/>
<path d="M45.1335 10.0049V33.5437H39.627V10.0049H45.1335Z" fill="#176267"/>
<path d="M53.5402 15.5715C55.8158 15.5715 57.6298 16.1335 58.9823 17.2574C60.3562 18.3813 61.215 19.8658 61.5584 21.7107H56.4062C56.2559 20.9897 55.9124 20.4277 55.3757 20.0248C54.8605 19.6007 54.2057 19.3886 53.4114 19.3886C52.7888 19.3886 52.3165 19.5265 51.9945 19.8022C51.6725 20.0566 51.5115 20.4277 51.5115 20.9155C51.5115 21.4668 51.8013 21.8804 52.3809 22.156C52.982 22.4317 53.9159 22.7074 55.1825 22.9831C56.5564 23.3012 57.6835 23.6299 58.5637 23.9692C59.4439 24.2872 60.206 24.8174 60.85 25.5596C61.494 26.3018 61.8161 27.2985 61.8161 28.5497C61.8161 29.5676 61.537 30.4688 60.9788 31.2534C60.4206 32.0381 59.6156 32.6531 58.5637 33.0984C57.5118 33.5437 56.2666 33.7664 54.8283 33.7664C52.4024 33.7664 50.4596 33.2362 48.9998 32.1759C47.5399 31.1156 46.649 29.5994 46.327 27.6272H51.6403C51.7262 28.3906 52.0482 28.9738 52.6064 29.3767C53.186 29.7796 53.9266 29.9811 54.8283 29.9811C55.4508 29.9811 55.9231 29.8432 56.2452 29.5676C56.5672 29.2707 56.7282 28.889 56.7282 28.4224C56.7282 27.8075 56.4276 27.3727 55.8265 27.1183C55.2469 26.8426 54.2916 26.5563 52.9606 26.2594C51.6296 25.9837 50.5347 25.6868 49.676 25.3688C48.8173 25.0507 48.0766 24.5417 47.4541 23.8419C46.8315 23.1209 46.5202 22.1454 46.5202 20.9155C46.5202 19.325 47.1321 18.042 48.3557 17.0666C49.5794 16.0699 51.3075 15.5715 53.5402 15.5715Z" fill="#176267"/>
<path d="M80 24.1918C80 24.6371 79.9463 25.1249 79.839 25.655H67.3769C67.4413 26.991 67.7848 27.9559 68.4074 28.5497C69.0299 29.1222 69.8242 29.4085 70.7903 29.4085C71.6061 29.4085 72.2823 29.2071 72.819 28.8041C73.3557 28.4012 73.7099 27.8817 73.8817 27.2455H79.7102C79.474 28.4967 78.9588 29.6206 78.1645 30.6173C77.3702 31.5927 76.3612 32.3668 75.1375 32.9393C73.9139 33.4907 72.5507 33.7664 71.0479 33.7664C69.2875 33.7664 67.7204 33.4059 66.3464 32.6849C64.994 31.9427 63.9313 30.8823 63.1585 29.5039C62.3856 28.1256 61.9992 26.5139 61.9992 24.669C61.9992 22.8028 62.3749 21.1912 63.1263 19.834C63.8991 18.4556 64.9725 17.4059 66.3464 16.6849C67.7204 15.9426 69.2875 15.5715 71.0479 15.5715C72.8297 15.5715 74.3969 15.932 75.7494 16.6531C77.1018 17.3741 78.143 18.3919 78.8729 19.7067C79.6243 21.0003 80 22.4953 80 24.1918ZM74.4291 23.3648C74.4506 22.1984 74.1285 21.329 73.463 20.7564C72.819 20.1627 72.014 19.8658 71.0479 19.8658C70.0389 19.8658 69.2017 20.1627 68.5362 20.7564C67.8707 21.3502 67.495 22.2197 67.4091 23.3648H74.4291Z" fill="#176267"/>
</svg>
