<svg width="146" height="50" viewBox="0 0 146 50" fill="none" xmlns="http://www.w3.org/2000/svg">
<path d="M11.3525 22.099C12.321 22.095 13.4252 22.0472 14.3808 22.0951C14.1706 22.1194 13.741 22.1275 13.6269 22.2493C14.6884 23.6852 16.4315 25.3318 17.6006 26.7337C18.008 27.2223 18.6857 27.8553 19.0156 28.3724C19.6204 28.3088 21.0994 28.3561 21.7988 28.3568C23.6798 28.3632 25.5606 28.3579 27.4414 28.3402C26.5335 27.4104 25.5048 26.1836 24.6015 25.2142C23.8998 24.4612 22.4863 22.9394 21.9375 22.1507C22.8362 22.0394 25.4775 22.0998 26.4589 22.1009H34.5996C34.5837 24.1884 34.5796 26.276 34.5859 28.3636C36.6743 28.3895 38.7631 28.3933 40.8515 28.3734L40.8418 39.4242C37.4013 39.4285 33.1503 39.5411 29.7675 39.429C29.5954 39.454 29.4432 39.4815 29.2724 39.515L29.2089 39.6185C29.7545 40.3509 30.5858 41.1929 31.2109 41.8861L34.5615 45.6146C27.2114 45.7635 19.8053 45.5671 12.4511 45.6488C10.4203 45.6714 8.32268 45.6757 6.29293 45.6253C6.21926 43.7148 6.26939 41.3685 6.28707 39.4456C4.27332 39.3904 2.07088 39.4278 0.0429329 39.4251C-0.00419313 35.7966 0.0181119 32.0133 0.0458626 28.3841C0.954997 28.2015 5.16575 28.35 6.29196 28.346C6.23739 26.3619 6.26155 24.095 6.29293 22.1068L11.3525 22.099Z" fill="#86C5DA"/>
<path d="M6.2876 39.4454L22.1302 39.435L27.3085 39.4281C27.8929 39.4272 29.2655 39.3838 29.7675 39.429C29.5954 39.4541 29.4433 39.4818 29.2726 39.5153L29.2086 39.6183C29.7541 40.3508 30.5861 41.1925 31.2113 41.8858L34.5618 45.6147C27.2117 45.7635 19.8059 45.5668 12.4517 45.6485C10.4205 45.6711 8.32256 45.676 6.29251 45.6257C6.21881 43.715 6.26992 41.3684 6.2876 39.4454Z" fill="#EBF6F9"/>
<path d="M26.459 22.1006H34.5996C34.5837 24.1882 34.5796 26.2757 34.5859 28.3633L23.0332 28.4463C22.3677 28.4473 19.5258 28.4931 19.0156 28.3721C19.6205 28.3084 21.0995 28.3557 21.7988 28.3564C23.6798 28.3628 25.5606 28.3575 27.4414 28.3398C26.5335 27.41 25.5049 26.1833 24.6016 25.2139C23.8998 24.4608 22.4863 22.9391 21.9375 22.1504C22.8363 22.0391 25.4777 22.0995 26.459 22.1006Z" fill="#EBF6F9"/>
<path d="M6.29309 22.1063L11.3524 22.0992C12.321 22.0952 13.425 22.0475 14.3805 22.0954C14.1704 22.1197 13.7411 22.1273 13.627 22.2491C14.6886 23.6851 16.4318 25.332 17.601 26.734C18.0084 27.2226 18.6852 27.8551 19.0151 28.3723C15.1619 28.3868 11.3018 28.3424 7.44802 28.3839C5.72003 28.4024 3.984 28.467 2.25465 28.4466C1.72787 28.4403 0.514225 28.4746 0.0456543 28.3837C0.95462 28.2011 5.16532 28.3498 6.29157 28.3458C6.23699 26.3615 6.2617 24.0946 6.29309 22.1063Z" fill="#EBF6F9"/>
<path d="M6.29026 4.84224L34.5908 4.8353C34.5885 6.84871 34.5432 9.06811 34.5986 11.0651C36.6819 11.0852 38.7652 11.0924 40.8486 11.0864C40.8482 14.7115 40.8941 18.4755 40.8415 22.0905L34.6 22.1005L26.4588 22.1009C25.4775 22.0998 22.8364 22.0393 21.9377 22.1506C21.4368 22.0546 19.8843 22.0848 19.287 22.0855L14.3806 22.0954C13.425 22.0475 12.321 22.0952 11.3525 22.0991L6.29314 22.1062C4.30278 22.0437 2.053 22.088 0.044522 22.0879C-0.0404265 18.5629 0.0170233 14.6163 0.0464676 11.0731C3.959 11.1178 7.93805 11.0828 11.8555 11.071C11.4123 10.4528 10.4609 9.45561 9.92968 8.86645L6.29026 4.84224Z" fill="#86C5DA"/>
<path d="M6.29028 4.84224L34.5908 4.8353C34.5885 6.84871 34.5432 9.06811 34.5986 11.0651L11.8555 11.071C11.4123 10.4528 10.4609 9.45561 9.9297 8.86645L6.29028 4.84224Z" fill="#EBF6F9"/>
<path d="M134.94 15.4773C140.412 15.1901 145.081 19.3915 145.373 24.8641C145.664 30.3366 141.468 35.0107 135.996 35.3064C130.519 35.6023 125.839 31.3984 125.547 25.9197C125.256 20.4413 129.462 15.7649 134.94 15.4773ZM135.236 19.9178C133.688 20.0999 132.476 20.6255 131.477 21.8768C129.655 24.1572 129.938 28.0135 132.281 29.8348C133.376 30.6825 134.487 30.7526 135.796 30.7371C142.317 30.4472 142.009 19.6891 135.236 19.9178Z" fill="#EBF6F9"/>
<path d="M99.1016 15.5134C101.984 15.3635 105.059 16.5149 106.97 18.7038C109.071 21.1106 109.542 23.709 109.374 26.8112L94.2296 26.819C95.5232 31.833 100.706 32.2674 104.168 29.2145C104.518 29.4421 105.473 29.8756 105.888 30.0768C106.656 30.458 107.433 30.819 108.22 31.1589C108.071 31.3529 107.917 31.5435 107.759 31.7302C106.008 33.8018 104.261 34.6967 101.589 35.1579C95.5083 36.2075 90.1166 32.6673 89.6114 26.2663C89.3746 23.5544 90.2239 20.859 91.9718 18.7722C93.9448 16.4609 96.1938 15.7444 99.1016 15.5134ZM104.716 23.0729C103.726 20.7522 101.427 19.1257 98.8477 19.5671C96.3756 19.9741 95.4969 20.9534 94.4317 23.0778L100.455 23.0817C101.853 23.0811 103.324 23.1038 104.716 23.0729Z" fill="#EBF6F9"/>
<path d="M78.2323 15.5077C80.8907 15.5231 83.5341 16.4124 85.4032 18.3407C87.7883 20.8022 88.1771 23.5405 88.1425 26.7988C83.1404 26.8708 78.0214 26.7942 73.0067 26.8163C73.2081 27.6499 73.5429 28.6165 74.1132 29.2509C76.72 32.1489 80.3364 31.3479 82.9364 29.2548C83.4272 29.5141 84.0759 29.7995 84.5878 30.0409C85.3805 30.3974 86.1835 30.797 86.9686 31.1757C86.8637 31.3123 86.7565 31.4472 86.6473 31.58C84.5965 34.0896 82.442 34.9852 79.2362 35.3046C76.5905 35.5396 73.765 34.7929 71.7089 33.0878C67.658 29.7288 67.2772 22.8507 70.6473 18.8886C72.6237 16.5652 74.7586 15.7818 77.7264 15.5136C77.8947 15.509 78.064 15.5069 78.2323 15.5077ZM83.4384 23.0888C82.5508 20.7078 80.1612 19.1691 77.6239 19.5683C75.2649 19.9568 74.1804 20.9536 73.2294 23.0722L79.077 23.079L83.4384 23.0888Z" fill="#EBF6F9"/>
<path d="M60.2814 15.5195C60.3515 15.5106 60.4306 15.5026 60.5009 15.5023C62.2601 15.4806 63.9553 16.161 65.2115 17.3928C67.4537 19.635 66.9232 23.1647 66.9199 26.1252L66.9184 34.7883C65.3801 34.8119 63.7815 34.788 62.2383 34.7867L62.2415 28.2517C62.2397 26.4018 62.2513 24.6597 62.0056 22.7932C61.728 20.6854 60.5583 19.4926 58.3215 19.8485C57.5691 19.9683 56.9819 20.3769 56.4244 20.8795C54.6199 22.8998 54.9411 25.8939 54.9455 28.4207L54.9424 34.7683L50.2342 34.7492C50.163 28.5369 50.2303 22.1932 50.2306 15.97L54.9537 15.9718L54.9383 17.7959C56.8373 16.4172 57.9104 15.6178 60.2814 15.5195Z" fill="#EBF6F9"/>
<path d="M122.226 15.9914C123.835 16.0182 125.496 16.0008 127.108 16.0048C126.365 17.842 125.531 19.605 124.746 21.4256L120.613 31.1432C120.098 32.3597 119.647 33.604 119.112 34.8014L115.997 34.7952C115.348 33.1702 114.472 31.3562 113.763 29.7068C111.799 25.1604 109.878 20.5952 108.003 16.0118C109.537 15.9661 111.23 16.0001 112.777 15.999C112.929 16.4079 113.121 16.8316 113.294 17.2335C114.722 20.5334 116.206 23.7977 117.599 27.114C118.065 25.811 118.668 24.5093 119.2 23.2255L122.226 15.9914Z" fill="#EBF6F9"/>
</svg>
