<svg width="146" height="50" viewBox="0 0 146 50" fill="none" xmlns="http://www.w3.org/2000/svg">
<path d="M6.29314 22.1063L11.3525 22.0992C12.321 22.0952 13.425 22.0475 14.3806 22.0954L19.287 22.0855C19.8843 22.0848 21.4368 22.0546 21.9377 22.1506C22.8364 22.0393 25.4774 22.0998 26.4588 22.1009L34.6 22.1005C34.5841 24.1883 34.5794 26.2761 34.5857 28.364C36.6742 28.3899 38.7629 28.3929 40.8514 28.373L40.8413 39.4244C37.4008 39.4287 33.1502 39.5412 29.7674 39.4291C29.5953 39.4541 29.4433 39.4819 29.2725 39.5154L29.2086 39.6184C29.7541 40.3509 30.586 41.1926 31.2112 41.8858L34.5618 45.6147C27.2116 45.7636 19.8059 45.5669 12.4516 45.6486C10.4205 45.6712 8.32251 45.6761 6.29246 45.6257C6.21876 43.715 6.26987 41.3684 6.28755 39.4454C4.27358 39.3901 2.07084 39.4275 0.0426533 39.4248C-0.0044745 35.7961 0.0179468 32.013 0.0456989 28.3837C0.954665 28.2011 5.16537 28.3498 6.29161 28.3458C6.23704 26.3615 6.26175 24.0946 6.29314 22.1063Z" fill="#5AA0B9"/>
<path d="M6.2876 39.4454L22.1302 39.435L27.3085 39.4281C27.8929 39.4272 29.2655 39.3838 29.7675 39.429C29.5954 39.4541 29.4433 39.4818 29.2726 39.5153L29.2086 39.6183C29.7541 40.3508 30.5861 41.1925 31.2113 41.8858L34.5618 45.6147C27.2117 45.7635 19.8059 45.5668 12.4517 45.6485C10.4205 45.6711 8.32256 45.676 6.29251 45.6257C6.21881 43.715 6.26992 41.3684 6.2876 39.4454Z" fill="#96C2C0"/>
<path d="M21.9377 22.1506C22.8365 22.0393 25.4775 22.0998 26.4588 22.1009L34.6 22.1005C34.5841 24.1883 34.5794 26.2761 34.5857 28.3639L23.0336 28.447C22.3686 28.448 19.5243 28.4934 19.0152 28.3722C18.6853 27.8551 18.0084 27.2226 17.601 26.734C16.4319 25.332 14.6887 23.6851 13.6271 22.2491C13.7412 22.1273 14.1704 22.1197 14.3806 22.0954L19.2871 22.0855C19.8843 22.0848 21.4368 22.0546 21.9377 22.1506Z" fill="#96C2C0"/>
<path d="M14.3806 22.0954L19.2871 22.0855C19.8843 22.0848 21.4368 22.0546 21.9377 22.1506C22.4865 22.9393 23.8996 24.4615 24.6013 25.2145C25.5046 26.1839 26.5335 27.4099 27.4414 28.3397C25.5606 28.3574 23.6797 28.363 21.7987 28.3566C21.0992 28.3559 19.6198 28.3085 19.0152 28.3722C18.6853 27.8551 18.0084 27.2226 17.601 26.734C16.4319 25.332 14.6887 23.6851 13.6271 22.2491C13.7412 22.1273 14.1704 22.1197 14.3806 22.0954Z" fill="white"/>
<path d="M6.29309 22.1063L11.3524 22.0992C12.321 22.0952 13.425 22.0475 14.3805 22.0954C14.1704 22.1197 13.7411 22.1273 13.627 22.2491C14.6886 23.6851 16.4318 25.332 17.601 26.734C18.0084 27.2226 18.6852 27.8551 19.0151 28.3723C15.1619 28.3868 11.3018 28.3424 7.44802 28.3839C5.72003 28.4024 3.984 28.467 2.25465 28.4466C1.72787 28.4403 0.514225 28.4746 0.0456543 28.3837C0.95462 28.2011 5.16532 28.3498 6.29157 28.3458C6.23699 26.3615 6.2617 24.0946 6.29309 22.1063Z" fill="#96C2C0"/>
<path d="M6.29026 4.84224L34.5908 4.8353C34.5885 6.84871 34.5432 9.06811 34.5986 11.0651C36.6819 11.0852 38.7652 11.0924 40.8486 11.0864C40.8482 14.7115 40.8941 18.4755 40.8415 22.0905L34.6 22.1005L26.4588 22.1009C25.4775 22.0998 22.8364 22.0393 21.9377 22.1506C21.4368 22.0546 19.8843 22.0848 19.287 22.0855L14.3806 22.0954C13.425 22.0475 12.321 22.0952 11.3525 22.0991L6.29314 22.1062C4.30278 22.0437 2.053 22.088 0.044522 22.0879C-0.0404265 18.5629 0.0170233 14.6163 0.0464676 11.0731C3.959 11.1178 7.93805 11.0828 11.8555 11.071C11.4123 10.4528 10.4609 9.45561 9.92968 8.86645L6.29026 4.84224Z" fill="#5AA0B9"/>
<path d="M6.29028 4.84224L34.5908 4.8353C34.5885 6.84871 34.5432 9.06811 34.5986 11.0651L11.8555 11.071C11.4123 10.4528 10.4609 9.45561 9.9297 8.86645L6.29028 4.84224Z" fill="#96C2C0"/>
<path d="M134.94 15.4771C140.412 15.1899 145.081 19.3914 145.373 24.864C145.664 30.3366 141.468 35.0105 135.996 35.3062C130.519 35.6023 125.839 31.3989 125.547 25.9201C125.256 20.4415 129.462 15.7646 134.94 15.4771Z" fill="#454545"/>
<path d="M135.236 19.9173C142.009 19.6886 142.317 30.4475 135.796 30.7371C134.487 30.7526 133.376 30.6825 132.281 29.8348C129.938 28.0136 129.655 24.157 131.477 21.8765C132.476 20.6252 133.688 20.0994 135.236 19.9173Z" fill="white"/>
<path d="M99.1017 15.513C101.984 15.3631 105.059 16.5148 106.97 18.7038C109.071 21.1107 109.542 23.7093 109.374 26.8117L94.2299 26.8188C95.5235 31.8329 100.706 32.2677 104.168 29.2148C104.518 29.4424 105.473 29.8761 105.888 30.0773C106.656 30.4585 107.433 30.8193 108.22 31.1592C108.071 31.3533 107.917 31.5438 107.759 31.7305C106.008 33.8021 104.261 34.6968 101.589 35.158C95.5083 36.2076 90.117 32.6677 89.6118 26.2667C89.3749 23.5547 90.2236 20.8595 91.9716 18.7725C93.9447 16.461 96.1937 15.744 99.1017 15.513Z" fill="#454545"/>
<path d="M98.8479 19.5671C101.427 19.1257 103.726 20.7523 104.716 23.0731C103.324 23.104 101.853 23.0815 100.455 23.0821L94.4321 23.0778C95.4973 20.9533 96.3756 19.9741 98.8479 19.5671Z" fill="white"/>
<path d="M77.7266 15.5131C77.895 15.5085 78.0642 15.5066 78.2326 15.5074C80.891 15.5228 83.5342 16.4121 85.4033 18.3404C87.7884 20.8019 88.1768 23.5404 88.1421 26.7988C83.1399 26.8709 78.021 26.7942 73.0062 26.8163C73.2076 27.6499 73.5426 28.6165 74.1129 29.2509C76.7197 32.1489 80.336 31.3481 82.936 29.255C83.4268 29.5143 84.0757 29.7988 84.5876 30.0403C85.3804 30.3968 86.1834 30.7968 86.9686 31.1756C86.8636 31.3122 86.7562 31.447 86.647 31.5798C84.5961 34.0894 82.4419 34.9852 79.236 35.3046C76.5903 35.5396 73.7652 34.7932 71.7091 33.0881C67.6578 29.7292 67.277 22.851 70.6473 18.8888C72.6238 16.5652 74.7585 15.7813 77.7266 15.5131Z" fill="#454545"/>
<path d="M77.6234 19.568C80.1608 19.1686 82.5502 20.7075 83.4378 23.0886L79.077 23.0784L73.2296 23.0721C74.1806 20.9535 75.2644 19.9565 77.6234 19.568Z" fill="white"/>
<path d="M60.2814 15.5195C60.3515 15.5106 60.4306 15.5026 60.5009 15.5023C62.2601 15.4806 63.9553 16.161 65.2115 17.3928C67.4537 19.635 66.9232 23.1647 66.9199 26.1252L66.9184 34.7883C65.3801 34.8119 63.7815 34.788 62.2383 34.7867L62.2415 28.2517C62.2397 26.4018 62.2513 24.6597 62.0056 22.7932C61.728 20.6854 60.5583 19.4926 58.3215 19.8485C57.5691 19.9683 56.9819 20.3769 56.4244 20.8795C54.6199 22.8998 54.9411 25.8939 54.9455 28.4207L54.9424 34.7683L50.2342 34.7492C50.163 28.5369 50.2303 22.1932 50.2306 15.97L54.9537 15.9718L54.9383 17.7959C56.8373 16.4172 57.9104 15.6178 60.2814 15.5195Z" fill="#454545"/>
<path d="M122.226 15.9914C123.835 16.0182 125.496 16.0008 127.108 16.0048C126.365 17.842 125.531 19.605 124.746 21.4256L120.613 31.1432C120.098 32.3597 119.647 33.604 119.112 34.8014L115.997 34.7952C115.348 33.1702 114.472 31.3562 113.763 29.7068C111.799 25.1604 109.878 20.5952 108.003 16.0118C109.537 15.9661 111.23 16.0001 112.777 15.999C112.929 16.4079 113.121 16.8316 113.294 17.2335C114.722 20.5334 116.206 23.7977 117.599 27.114C118.065 25.811 118.668 24.5093 119.2 23.2255L122.226 15.9914Z" fill="#454545"/>
</svg>
